
      <svg data-logo="logo" xmlns="http://www.w3.org/2000/svg" viewBox="0 0 225 43">
        <g id="logogram" transform="translate(0, 1) rotate(0)"><path d="M37.8473 40.43C44.2801 40.2989 49.4526 35.0373 49.4526 28.5688C49.4526 25.4231 48.2038 22.4061 45.9809 20.1818L26.2421 0.429993V12.707C26.2421 14.7603 27.0573 16.7295 28.5082 18.1814L33.1321 22.8084L33.1448 22.8207L40.8979 30.5789C41.1497 30.8309 41.1497 31.2394 40.8979 31.4913C40.6461 31.7433 40.2379 31.7433 39.9861 31.4913L37.3136 28.8171H12.5917L9.91919 31.4913C9.6674 31.7433 9.25918 31.7433 9.00739 31.4913C8.75561 31.2394 8.75561 30.8309 9.00739 30.5789L16.7605 22.8207L16.7732 22.8084L21.3971 18.1814C22.848 16.7295 23.6631 14.7603 23.6631 12.707V0.429993L3.92439 20.1818C1.70146 22.4061 0.452637 25.4231 0.452637 28.5688C0.452637 35.0373 5.62516 40.2989 12.058 40.43H37.8473Z" fill="#FF0A0A"/></g>
        <g id="logotype" transform="translate(56, 8.5)"><path fill="#111111" d="M19.43 26.34L19.43 26.34Q16.05 26.34 13.37 24.80Q10.70 23.27 9.15 20.34Q7.61 17.42 7.61 13.29L7.61 13.29Q7.61 9.13 9.16 6.20Q10.72 3.27 13.40 1.73Q16.08 0.19 19.43 0.19L19.43 0.19Q21.60 0.19 23.47 0.80Q25.35 1.41 26.80 2.57Q28.25 3.73 29.17 5.42Q30.10 7.10 30.39 9.23L30.39 9.23L25.11 9.23Q24.94 8.19 24.45 7.38Q23.96 6.57 23.24 6.00Q22.51 5.42 21.57 5.12Q20.63 4.83 19.54 4.83L19.54 4.83Q17.55 4.83 16.05 5.82Q14.54 6.81 13.72 8.70Q12.90 10.58 12.90 13.29L12.90 13.29Q12.90 16.04 13.74 17.92Q14.58 19.80 16.07 20.75Q17.55 21.71 19.52 21.71L19.52 21.71Q20.61 21.71 21.54 21.41Q22.47 21.11 23.22 20.54Q23.96 19.97 24.45 19.15Q24.94 18.33 25.12 17.30L25.12 17.30L30.40 17.30Q30.20 19.06 29.35 20.69Q28.51 22.31 27.11 23.59Q25.70 24.87 23.77 25.61Q21.84 26.34 19.43 26.34ZM40.35 26.38L40.35 26.38Q37.48 26.38 35.38 25.14Q33.27 23.90 32.14 21.68Q31.00 19.47 31.00 16.53L31.00 16.53Q31.00 13.56 32.14 11.35Q33.27 9.13 35.38 7.89Q37.48 6.65 40.35 6.65L40.35 6.65Q43.24 6.65 45.33 7.89Q47.42 9.13 48.56 11.35Q49.70 13.56 49.70 16.53L49.70 16.53Q49.70 19.47 48.56 21.68Q47.42 23.90 45.33 25.14Q43.24 26.38 40.35 26.38ZM40.35 22.34L40.35 22.34Q41.72 22.34 42.64 21.58Q43.56 20.82 44.02 19.50Q44.48 18.17 44.48 16.52L44.48 16.52Q44.48 14.82 44.02 13.51Q43.56 12.19 42.64 11.44Q41.72 10.69 40.35 10.69L40.35 10.69Q38.98 10.69 38.07 11.44Q37.15 12.19 36.69 13.51Q36.23 14.82 36.23 16.52L36.23 16.52Q36.23 18.17 36.69 19.50Q37.15 20.82 38.07 21.58Q38.98 22.34 40.35 22.34ZM56.12 14.94L56.12 14.94L56.12 26L50.99 26L50.99 6.89L55.83 6.89L55.92 11.66L55.61 11.66Q56.36 9.27 57.89 7.96Q59.42 6.65 61.85 6.65L61.85 6.65Q63.83 6.65 65.30 7.52Q66.77 8.38 67.59 10.00Q68.41 11.61 68.41 13.85L68.41 13.85L68.41 26L63.28 26L63.28 14.74Q63.28 12.96 62.37 11.95Q61.45 10.94 59.83 10.94L59.83 10.94Q58.75 10.94 57.91 11.41Q57.06 11.88 56.59 12.77Q56.12 13.66 56.12 14.94ZM68.66 6.89L79.99 6.89L79.99 10.81L68.66 10.81L68.66 6.89ZM71.29 20.86L71.29 2.35L76.42 2.35L76.42 20.41Q76.42 21.32 76.82 21.75Q77.22 22.19 78.16 22.19L78.16 22.19Q78.45 22.19 78.98 22.11Q79.51 22.04 79.79 21.97L79.79 21.97L80.52 25.81Q79.67 26.07 78.82 26.17Q77.98 26.27 77.21 26.27L77.21 26.27Q74.34 26.27 72.82 24.87Q71.29 23.47 71.29 20.86L71.29 20.86ZM89.68 26.38L89.68 26.38Q86.76 26.38 84.64 25.18Q82.52 23.98 81.38 21.78Q80.25 19.57 80.25 16.55L80.25 16.55Q80.25 13.59 81.38 11.37Q82.50 9.15 84.57 7.90Q86.64 6.65 89.42 6.65L89.42 6.65Q91.30 6.65 92.93 7.25Q94.55 7.85 95.78 9.06Q97.01 10.26 97.70 12.07Q98.40 13.88 98.40 16.34L98.40 16.34L98.40 17.78L82.35 17.78L82.35 14.57L95.88 14.57L93.49 15.42Q93.49 13.93 93.04 12.83Q92.59 11.73 91.69 11.12Q90.79 10.52 89.46 10.52L89.46 10.52Q88.14 10.52 87.21 11.13Q86.28 11.75 85.80 12.80Q85.32 13.85 85.32 15.20L85.32 15.20L85.32 17.47Q85.32 19.13 85.88 20.26Q86.43 21.39 87.43 21.95Q88.43 22.51 89.77 22.51L89.77 22.51Q90.67 22.51 91.41 22.26Q92.14 22.00 92.66 21.50Q93.18 20.99 93.46 20.26L93.46 20.26L98.11 21.13Q97.64 22.70 96.50 23.89Q95.35 25.08 93.64 25.73Q91.92 26.38 89.68 26.38ZM104.75 14.94L104.75 14.94L104.75 26L99.62 26L99.62 6.89L104.46 6.89L104.55 11.66L104.24 11.66Q104.99 9.27 106.52 7.96Q108.05 6.65 110.48 6.65L110.48 6.65Q112.46 6.65 113.93 7.52Q115.40 8.38 116.22 10.00Q117.04 11.61 117.04 13.85L117.04 13.85L117.04 26L111.91 26L111.91 14.74Q111.91 12.96 111.00 11.95Q110.08 10.94 108.46 10.94L108.46 10.94Q107.38 10.94 106.54 11.41Q105.69 11.88 105.22 12.77Q104.75 13.66 104.75 14.94ZM117.29 6.89L128.62 6.89L128.62 10.81L117.29 10.81L117.29 6.89ZM119.93 20.86L119.93 2.35L125.05 2.35L125.05 20.41Q125.05 21.32 125.45 21.75Q125.86 22.19 126.80 22.19L126.80 22.19Q127.09 22.19 127.62 22.11Q128.15 22.04 128.42 21.97L128.42 21.97L129.15 25.81Q128.30 26.07 127.45 26.17Q126.61 26.27 125.84 26.27L125.84 26.27Q122.97 26.27 121.45 24.87Q119.93 23.47 119.93 20.86L119.93 20.86ZM133.34 26.32L133.34 26.32Q132.09 26.32 131.24 25.48Q130.38 24.63 130.38 23.39L130.38 23.39Q130.38 22.14 131.24 21.30Q132.09 20.46 133.34 20.46L133.34 20.46Q134.59 20.46 135.44 21.30Q136.30 22.14 136.30 23.39L136.30 23.39Q136.30 24.63 135.44 25.48Q134.59 26.32 133.34 26.32ZM143.51 26L137.75 26L146.45 0.54L153.28 0.54L162.20 26L156.41 26L152.32 13.71Q151.59 11.34 150.83 8.51Q150.07 5.68 149.23 2.33L149.23 2.33L150.36 2.33Q149.56 5.70 148.85 8.54Q148.14 11.39 147.44 13.71L147.44 13.71L143.51 26ZM156.77 20.09L143.18 20.09L143.18 16.00L156.77 16.00L156.77 20.09ZM163.07 0.54L168.28 0.54L168.28 26L163.07 26L163.07 0.54Z"/></g>
        
      </svg>
    